<svg width="190" height="190" xmlns="http://www.w3.org/2000/svg" xmlns:xlink="http://www.w3.org/1999/xlink" overflow="hidden"><defs><clipPath id="clip0"><rect x="646" y="2247" width="190" height="190"/></clipPath></defs><g clip-path="url(#clip0)" transform="translate(-646 -2247)"><path d="M757.766 2395.03 723.702 2395.03C720.552 2395.03 717.998 2397.58 717.998 2400.73 717.998 2403.88 720.552 2406.43 723.702 2406.43L757.766 2406.43C760.916 2406.43 763.469 2403.88 763.469 2400.73 763.469 2397.58 760.916 2395.03 757.766 2395.03Z" fill="#023047"/><path d="M740.735 2425.77C747.203 2425.77 752.584 2420.8 753.091 2414.35L728.377 2414.35C728.884 2420.8 734.266 2425.77 740.735 2425.77Z" fill="#023047"/><path d="M790.161 2335.02 790.161 2333.31C789.667 2306.31 767.736 2284.64 740.735 2284.45L740.735 2284.45C713.732 2284.63 691.798 2306.31 691.303 2333.31L691.303 2335.02C691.488 2340.88 692.651 2346.66 694.745 2352.13 696.749 2357.29 699.658 2362.06 703.336 2366.2 707.861 2371.15 712.823 2380.74 714.915 2385 715.556 2386.29 716.874 2387.11 718.317 2387.11L763.147 2387.11C764.59 2387.11 765.908 2386.29 766.551 2385 768.641 2380.74 773.603 2371.15 778.127 2366.2 781.805 2362.06 784.715 2357.29 786.719 2352.13 788.812 2346.66 789.975 2340.88 790.161 2335.02ZM778.755 2334.82C778.583 2339.38 777.663 2343.88 776.031 2348.14 774.523 2351.97 772.347 2355.51 769.605 2358.59 765.248 2363.84 761.516 2369.58 758.484 2375.7L722.974 2375.7C719.943 2369.58 716.211 2363.84 711.853 2358.59 709.11 2355.51 706.935 2351.97 705.428 2348.14 703.798 2343.88 702.879 2339.38 702.709 2334.83L702.709 2333.4C703.093 2312.64 719.968 2295.98 740.731 2295.86L740.731 2295.86C761.495 2295.98 778.371 2312.65 778.751 2333.41Z" fill="#023047"/><path d="M741.123 2276.69C743.309 2276.69 745.081 2274.92 745.081 2272.73L745.081 2258.88C745.081 2256.69 743.309 2254.92 741.123 2254.92 738.937 2254.92 737.164 2256.69 737.164 2258.88L737.164 2272.73C737.164 2274.92 738.937 2276.69 741.123 2276.69Z" fill="#023047"/><path d="M694.145 2294.1C695.664 2295.68 698.17 2295.72 699.742 2294.2 701.315 2292.68 701.358 2290.18 699.84 2288.6 699.808 2288.57 699.775 2288.54 699.742 2288.51L689.938 2278.7C688.365 2277.18 685.859 2277.23 684.34 2278.8 682.859 2280.33 682.859 2282.77 684.34 2284.3Z" fill="#023047"/><path d="M785.355 2296.01C786.405 2296.01 787.411 2295.59 788.154 2294.85L797.949 2285.05C799.435 2283.45 799.342 2280.94 797.739 2279.46 796.219 2278.05 793.87 2278.05 792.351 2279.46L782.562 2289.25C781.017 2290.8 781.017 2293.3 782.563 2294.85 783.305 2295.59 784.312 2296.01 785.361 2296.01Z" fill="#023047"/><path d="M679.646 2329.14 665.792 2329.14C663.606 2329.14 661.833 2330.91 661.833 2333.09 661.833 2335.28 663.606 2337.05 665.792 2337.05L679.646 2337.05C681.832 2337.05 683.604 2335.28 683.604 2333.09 683.604 2330.91 681.832 2329.14 679.646 2329.14Z" fill="#023047"/><path d="M694.145 2371.96 684.348 2381.75C682.739 2383.23 682.633 2385.74 684.113 2387.35 685.592 2388.96 688.096 2389.06 689.706 2387.58 689.786 2387.51 689.863 2387.43 689.938 2387.35L699.734 2377.55C701.307 2376.03 701.35 2373.53 699.832 2371.96 698.313 2370.38 695.807 2370.34 694.235 2371.86 694.202 2371.89 694.169 2371.92 694.137 2371.96Z" fill="#023047"/><path d="M788.154 2371.21C786.665 2369.61 784.16 2369.51 782.559 2371 780.958 2372.49 780.867 2375 782.356 2376.6 782.422 2376.67 782.491 2376.74 782.562 2376.8L792.357 2386.6C793.93 2388.12 796.436 2388.07 797.954 2386.5 799.436 2384.97 799.436 2382.54 797.954 2381Z" fill="#023047"/><path d="M815.714 2329 801.859 2329C799.673 2329 797.901 2330.77 797.901 2332.96 797.901 2335.15 799.673 2336.92 801.859 2336.92L815.714 2336.92C817.9 2336.92 819.672 2335.15 819.672 2332.96 819.672 2330.77 817.9 2329 815.714 2329Z" fill="#023047"/></g></svg>