<svg width="168" height="169" xmlns="http://www.w3.org/2000/svg" xmlns:xlink="http://www.w3.org/1999/xlink" overflow="hidden"><defs><clipPath id="clip0"><rect x="1581" y="2255" width="168" height="169"/></clipPath></defs><g clip-path="url(#clip0)" transform="translate(-1581 -2255)"><path d="M134.4 111.3C126.7 105 116.9 100.8 107.1 98 100.1 95.9 92.4 94.5 84 94.5 76.3 94.5 68.6 95.9 60.9 98 51.1 100.8 41.3 105.7 33.6 111.3 30.1 114.1 28 118.3 28 122.5L28 150.5 140 150.5 140 122.5C140 118.3 137.9 114.1 134.4 111.3Z" fill="#023047" transform="matrix(1 0 0 1.00595 1581 2255)"/><path d="M56.7 35.7C57.75 35.7 58.625 35.35 59.15 34.65L59.15 34.65C65.625 28.35 74.375 24.5 84 24.5 103.25 24.5 119 40.25 119 59.5L119 67.55 98.875 74.2C98 73.85 97.125 73.5 96.25 73.5 93.275 73.5 91 75.775 91 78.75 91 81.725 93.275 84 96.25 84 98.35 84 100.275 82.775 101.15 80.85L128.975 71.575C130.375 71.05 131.425 69.825 131.425 68.25L131.425 52.5C131.425 50.575 129.85 49 127.925 49L124.775 49C120.05 30.975 103.6 17.5 84 17.5 72.625 17.5 62.3 22.05 54.6 29.4 53.725 30.1 53.2 30.975 53.2 32.2 53.2 34.125 54.775 35.7 56.7 35.7Z" fill="#023047" transform="matrix(1 0 0 1.00595 1581 2255)"/><path d="M111.825 62.475C112 61.425 112 60.55 112 59.5 112 44.1 99.4 31.5 84 31.5 68.6 31.5 56 44.1 56 59.5 56 74.9 68.6 87.5 84 87.5 84.525 87.5 85.225 87.5 85.75 87.325L85.75 78.75 85.75 78.75C85.75 77.175 86.1 75.6 86.8 74.025 88.025 71.575 90.125 69.65 92.925 68.775L111.825 62.475Z" fill="#023047" transform="matrix(1 0 0 1.00595 1581 2255)"/></g></svg>