<svg width="93" height="93" xmlns="http://www.w3.org/2000/svg" xmlns:xlink="http://www.w3.org/1999/xlink" overflow="hidden"><defs><clipPath id="clip0"><rect x="1353" y="2274" width="93" height="93"/></clipPath></defs><g clip-path="url(#clip0)" transform="translate(-1353 -2274)"><path d="M1412.97 2334.45C1420.52 2327.18 1420.91 2315.17 1413.74 2307.42 1421.39 2311.39 1427.69 2317.5 1431.37 2321.57 1427.5 2325.34 1420.91 2330.96 1412.97 2334.45ZM1374.89 2314.49C1378.09 2311.78 1381.48 2309.46 1385.16 2307.52 1378.09 2315.27 1378.48 2327.18 1386.03 2334.45 1378.09 2330.96 1371.41 2325.34 1367.63 2321.57 1369.86 2319.05 1372.28 2316.72 1374.89 2314.49L1374.89 2314.49ZM1399.5 2336C1390.97 2336 1384 2329.02 1384 2320.5 1384 2311.98 1390.97 2305 1399.5 2305 1408.03 2305 1415 2311.98 1415 2320.5 1415 2329.02 1408.03 2336 1399.5 2336ZM1437.18 2318.85C1431.57 2312.27 1416.84 2297.25 1399.5 2297.25 1382.16 2297.25 1367.43 2312.27 1361.82 2318.85 1360.36 2320.6 1360.46 2323.02 1362.01 2324.67 1367.72 2330.67 1382.35 2343.75 1399.5 2343.75 1416.65 2343.75 1431.28 2330.67 1437.09 2324.67 1438.54 2323.12 1438.64 2320.6 1437.18 2318.85Z"/><path d="M1409.19 2320.5C1409.19 2325.85 1404.85 2330.19 1399.5 2330.19 1394.15 2330.19 1389.81 2325.85 1389.81 2320.5 1389.81 2315.15 1394.15 2310.81 1399.5 2310.81 1404.85 2310.81 1409.19 2315.15 1409.19 2320.5Z"/></g></svg>