<svg width="208" height="209" xmlns="http://www.w3.org/2000/svg" xmlns:xlink="http://www.w3.org/1999/xlink" overflow="hidden"><defs><clipPath id="clip0"><rect x="143" y="2245" width="208" height="209"/></clipPath></defs><g clip-path="url(#clip0)" transform="translate(-143 -2245)"><path d="M186.333 47.6667 186.333 153.833 21.6667 153.833 21.6667 47.6667 8.66667 47.6667 8.66667 169 84.5 169C84.5 172.683 87.3167 175.5 91 175.5L117 175.5C120.683 175.5 123.5 172.683 123.5 169L199.333 169 199.333 47.6667 186.333 47.6667Z" fill="#023047" transform="matrix(1 0 0 1.00481 143 2245)"/><path d="M177.667 34.6667 30.3333 34.6667 30.3333 145.167 177.667 145.167 177.667 34.6667ZM43.3333 47.6667 99.6667 47.6667 99.6667 132.167 43.3333 132.167 43.3333 47.6667ZM164.667 132.167 108.333 132.167 108.333 47.6667 164.667 47.6667 164.667 132.167Z" fill="#023047" transform="matrix(1 0 0 1.00481 143 2245)"/><path d="M121.333 69.3333 151.667 69.3333 151.667 75.8333 121.333 75.8333Z" fill="#023047" transform="matrix(1 0 0 1.00481 143 2245)"/><path d="M121.333 82.3333 151.667 82.3333 151.667 88.8333 121.333 88.8333Z" fill="#023047" transform="matrix(1 0 0 1.00481 143 2245)"/><path d="M121.333 95.3333 142.35 95.3333 142.35 101.833 121.333 101.833Z" fill="#023047" transform="matrix(1 0 0 1.00481 143 2245)"/></g></svg>