<svg width="89" height="89" xmlns="http://www.w3.org/2000/svg" xmlns:xlink="http://www.w3.org/1999/xlink" overflow="hidden"><defs><clipPath id="clip0"><rect x="419" y="2277" width="89" height="89"/></clipPath></defs><g clip-path="url(#clip0)" transform="translate(-419 -2277)"><path d="M487.511 2322.71C489.18 2329.47 482.227 2336.15 475.367 2333.37 469.619 2331.33 467.394 2324.65 471.38 2318.9 480.373 2306.94 473.791 2288.12 458.865 2281.64 465.632 2294.43 455.249 2306.2 449.316 2311.12 443.382 2316.03 439.396 2321.13 438.191 2324.1 432.165 2338.74 441.157 2352.74 447.276 2356.08 444.495 2349.78 441.899 2337.72 452.839 2326.41 452.839 2326.41 449.686 2338.47 456.547 2346.81 463.407 2355.15 463.315 2361.36 463.315 2361.36 473.976 2361.36 484.081 2354.97 488.346 2344.49 491.591 2338.28 491.869 2328.45 487.511 2322.71" fill="#023047"/></g></svg>