<svg width="96" height="96" xmlns="http://www.w3.org/2000/svg" xmlns:xlink="http://www.w3.org/1999/xlink" overflow="hidden"><defs><clipPath id="clip0"><rect x="734" y="1155" width="96" height="96"/></clipPath></defs><g clip-path="url(#clip0)" transform="translate(-734 -1155)"><path d="M787.7 1203C787.7 1206.31 785.014 1209 781.7 1209 778.386 1209 775.7 1206.31 775.7 1203 775.7 1199.69 778.386 1197 781.7 1197 785.014 1197 787.7 1199.69 787.7 1203Z"/><path d="M816.9 1183C815.2 1180.1 811.4 1178.7 806.2 1178.7 802.9 1178.7 799.1 1179.3 794.9 1180.4 792 1169.9 787.2 1163 781.7 1163 776.3 1163 771.4 1169.8 768.6 1180.2 764.6 1179.2 761 1178.6 757.8 1178.6 752.6 1178.6 748.8 1180 747.1 1182.9 744.3 1187.7 748 1195.4 755.7 1203.2 748.3 1210.8 744.9 1218.2 747.6 1222.9 749.3 1225.8 753.1 1227.2 758.3 1227.2 761.3 1227.2 764.8 1226.7 768.6 1225.8 771.5 1236.2 776.3 1243 781.7 1243 787.1 1243 792 1236.2 794.8 1225.8 798.8 1226.8 802.4 1227.4 805.6 1227.4 810.8 1227.4 814.6 1226 816.3 1223.1 819 1218.4 815.6 1211 808.2 1203.4 816.1 1195.5 819.7 1187.8 816.9 1183ZM806.2 1182.7C809.9 1182.7 812.6 1183.6 813.4 1185 814.9 1187.6 812.2 1193.7 805.4 1200.5 803 1198.3 800.3 1196.1 797.3 1194 797 1190.6 796.5 1187.3 795.8 1184.2 799.6 1183.2 803.2 1182.7 806.2 1182.7ZM788.3 1213.4C786.2 1214.6 784.1 1215.7 782 1216.7 779.9 1215.7 777.8 1214.6 775.7 1213.4 773.7 1212.2 771.7 1211 769.9 1209.8 769.7 1207.6 769.7 1205.4 769.7 1203 769.7 1200.8 769.8 1198.7 769.9 1196.6 771.9 1195.2 774 1193.9 776.3 1192.6 778.2 1191.5 780.1 1190.5 782 1189.6 783.9 1190.5 785.8 1191.5 787.7 1192.6 789.7 1193.8 791.7 1195 793.5 1196.2 793.7 1198.4 793.7 1200.6 793.7 1203 793.7 1205.5 793.6 1207.9 793.4 1210.2 791.8 1211.3 790.1 1212.3 788.3 1213.4ZM792.9 1215.3C792.6 1217.2 792.3 1219.1 792 1220.8 790.3 1220.2 788.5 1219.6 786.7 1218.8 787.9 1218.2 789.1 1217.5 790.3 1216.8 791.2 1216.3 792.1 1215.8 792.9 1215.3ZM777.3 1218.8C775.3 1219.6 773.4 1220.3 771.5 1220.9 771.1 1219 770.8 1217 770.5 1214.9 771.6 1215.6 772.6 1216.2 773.8 1216.9 774.9 1217.5 776.1 1218.2 777.3 1218.8ZM765.8 1206.8C764.2 1205.6 762.8 1204.4 761.5 1203.2 762.8 1202 764.3 1200.8 765.8 1199.6 765.8 1200.7 765.7 1201.8 765.7 1203 765.7 1204.3 765.7 1205.6 765.8 1206.8ZM770.4 1191.5C770.7 1189.3 771 1187.2 771.4 1185.2 773.3 1185.8 775.3 1186.6 777.3 1187.4 776.3 1187.9 775.2 1188.5 774.2 1189.1 773 1189.9 771.7 1190.7 770.4 1191.5ZM786.6 1187.4C788.4 1186.6 790.2 1186 792 1185.4 792.4 1187.2 792.7 1189.1 793 1191.1 791.9 1190.4 790.9 1189.8 789.7 1189.1 788.7 1188.6 787.7 1188 786.6 1187.4ZM797.6 1199.2C799.4 1200.6 801 1201.9 802.5 1203.3 801 1204.6 799.4 1206 797.6 1207.3 797.7 1205.9 797.7 1204.5 797.7 1203.1 797.7 1201.7 797.7 1200.4 797.6 1199.2ZM781.7 1167C784.7 1167 788.6 1172.3 791.1 1181.5 788.2 1182.5 785.1 1183.7 782 1185.1 778.7 1183.6 775.5 1182.3 772.4 1181.3 774.9 1172.2 778.7 1167 781.7 1167ZM750.5 1185C751.4 1183.5 754 1182.7 757.7 1182.7 760.6 1182.7 763.9 1183.2 767.5 1184.1 766.8 1187.3 766.3 1190.8 766 1194.4 763.2 1196.4 760.7 1198.4 758.5 1200.5 751.8 1193.7 749 1187.6 750.5 1185ZM758.3 1223.3C754.6 1223.3 751.9 1222.4 751.1 1221 749.6 1218.4 752.2 1212.6 758.6 1206 760.9 1208 763.4 1210 766.1 1212 766.4 1215.5 766.9 1218.9 767.6 1222 764.3 1222.9 761.1 1223.3 758.3 1223.3ZM781.7 1239C778.7 1239 774.9 1233.8 772.4 1224.8 775.5 1223.8 778.7 1222.6 782 1221.1 785.1 1222.5 788.1 1223.7 791 1224.6 788.5 1233.8 784.7 1239 781.7 1239ZM812.9 1221C812 1222.5 809.4 1223.3 805.7 1223.3 802.8 1223.3 799.4 1222.8 795.9 1221.9 796.5 1218.9 797 1215.8 797.3 1212.4 800.3 1210.3 803 1208.2 805.4 1206 811.8 1212.6 814.4 1218.4 812.9 1221Z"/></g></svg>